<svg xmlns="http://www.w3.org/2000/svg" viewBox="0 0 327.65 404.17"><defs><style>.cls-1{fill:#ffce07;}.cls-2{fill:#555;}</style></defs><g id="Layer_2" data-name="Layer 2"><g id="Layer_1-2" data-name="Layer 1"><path class="cls-1" d="M45.62,237.08v-70a106.47,106.47,0,0,1,204.17-42.3l39.12-39.12A152.09,152.09,0,0,0,0,152.08v100a152.17,152.17,0,0,0,2.75,28.83L45.64,238C45.64,237.7,45.62,237.39,45.62,237.08Z"/><path class="cls-1" d="M258.54,233.39v3.69A106.48,106.48,0,0,1,51.43,271.83L12,311.29a152.09,152.09,0,0,0,292.19-59.21V187.77Z"/><path class="cls-2" d="M326.65,127.84l-22-22a3.42,3.42,0,0,0-2.43-1,3.37,3.37,0,0,0-2.42,1l-2.14,2.19a152.05,152.05,0,0,1,6.46,44v3.06l22.49-22.49a3.39,3.39,0,0,0,0-4.81Z"/><path class="cls-2" d="M179,230a24,24,0,0,1-34.59-.29l-27.27-27.34a3.41,3.41,0,0,0-4.91-.09L87.87,226.59a4.17,4.17,0,0,0-.07,5.83l38.05,35.65a46.23,46.23,0,0,0,65.39,0l67.3-67.3V167.08a106.47,106.47,0,0,0-1.41-17.33Z"/><path class="cls-1" d="M297.7,108.1l-40.57,41.65a106.47,106.47,0,0,1,1.41,17.33v33.68l45.62-45.62v-3.06A152.05,152.05,0,0,0,297.7,108.1Z"/></g></g></svg>