<svg xmlns="http://www.w3.org/2000/svg" viewBox="0 0 544.13 150.98"><defs><style>.cls-1{fill:#555;}.cls-2{fill:#ffce07;}</style></defs><g id="Layer_2" data-name="Layer 2"><g id="Layer_1-2" data-name="Layer 1"><path class="cls-1" d="M168.73,48.29v43.2q0,7.1,3.7,10.85t10.4,3.75q6.79,0,10.5-3.75T197,91.49V48.29h14.1v43.1q0,8.89-3.85,15a24.46,24.46,0,0,1-10.3,9.25,32.81,32.81,0,0,1-14.35,3.1,31.9,31.9,0,0,1-14.15-3.1,23.6,23.6,0,0,1-10-9.25q-3.7-6.15-3.7-15V48.29Z"/><path class="cls-1" d="M304.33,118.09h-14l-31.7-47.9v47.9h-14V48.19h14l31.7,48v-48h14Z"/><path class="cls-1" d="M400.33,114.19a34.37,34.37,0,0,1-13-12.75A35.7,35.7,0,0,1,382.53,83a35.47,35.47,0,0,1,4.8-18.35,34.22,34.22,0,0,1,13-12.75,37.62,37.62,0,0,1,36.05,0,34,34,0,0,1,12.9,12.75A35.82,35.82,0,0,1,454,83a36.06,36.06,0,0,1-4.75,18.45,34.1,34.1,0,0,1-12.95,12.75,37.52,37.52,0,0,1-36,0Zm29.1-10.75a19.56,19.56,0,0,0,7.5-8.15,26.78,26.78,0,0,0,2.7-12.3,26.42,26.42,0,0,0-2.7-12.25,19.23,19.23,0,0,0-7.5-8,21.59,21.59,0,0,0-11.1-2.8,21.85,21.85,0,0,0-11.15,2.8,19.09,19.09,0,0,0-7.55,8A26.42,26.42,0,0,0,396.93,83a26.78,26.78,0,0,0,2.7,12.3,19.41,19.41,0,0,0,7.55,8.15,21.59,21.59,0,0,0,11.15,2.85A21.33,21.33,0,0,0,429.43,103.44Z"/><path class="cls-1" d="M544.13,118.09h-14l-31.7-47.9v47.9h-14V48.19h14l31.7,48v-48h14Z"/><polygon class="cls-1" points="338.13 74.6 338.13 118.09 352.13 118.09 352.13 60.6 338.13 74.6"/><polygon class="cls-2" points="352.13 48.29 338.13 48.29 338.13 67.53 352.13 53.53 352.13 48.29"/><path class="cls-2" d="M17,88.56V62.41a39.77,39.77,0,0,1,76.27-15.8L107.92,32A56.81,56.81,0,0,0,0,56.81V94.16a56.92,56.92,0,0,0,1,10.77l16-16C17.05,88.79,17,88.68,17,88.56Z"/><path class="cls-2" d="M96.58,88.56a39.78,39.78,0,0,1-77.37,13L4.47,116.28A56.82,56.82,0,0,0,113.62,94.16v-24l-17,17Z"/><path class="cls-2" d="M111.2,40.38,96.05,55.94a39.5,39.5,0,0,1,.53,6.47V75l17-17V56.81A56.78,56.78,0,0,0,111.2,40.38Z"/><path class="cls-1" d="M96.05,55.94l-29.19,30a9,9,0,0,1-12.92-.11L43.75,75.58a1.33,1.33,0,0,0-.91-.41,1.26,1.26,0,0,0-.92.38l-9.1,9.09a1.55,1.55,0,0,0,0,2.18L47,100.14a17.29,17.29,0,0,0,24.43,0L96.58,75V62.41A39.5,39.5,0,0,0,96.05,55.94Z"/></g></g></svg>