<svg xmlns="http://www.w3.org/2000/svg" viewBox="0 0 162.31 215.68"><defs><style>.cls-1{fill:#ffce07;}.cls-2{fill:#555;}</style></defs><g id="Layer_2" data-name="Layer 2"><g id="Layer_1-2" data-name="Layer 1"><path class="cls-1" d="M24.34,126.51V89.16a56.81,56.81,0,0,1,109-22.57l20.88-20.88A81.16,81.16,0,0,0,0,81.16v53.36A82,82,0,0,0,1.46,149.9L24.36,127C24.35,126.85,24.34,126.68,24.34,126.51Z"/><path class="cls-1" d="M138,126.51A56.82,56.82,0,0,1,27.44,145.06l-21,21.05a81.16,81.16,0,0,0,155.92-31.59V100.2L138,124.54Z"/><path class="cls-1" d="M158.86,57.69,137.21,79.91a56.42,56.42,0,0,1,.76,9.25v18l24.34-24.34V81.16A81.14,81.14,0,0,0,158.86,57.69Z"/><path class="cls-2" d="M137.21,79.91l-41.7,42.81a12.8,12.8,0,0,1-18.46-.16L62.5,108a1.8,1.8,0,0,0-1.3-.58,1.84,1.84,0,0,0-1.32.53l-13,13a2.22,2.22,0,0,0,0,3.11l20.31,19a24.66,24.66,0,0,0,34.89,0L138,107.13v-18A56.42,56.42,0,0,0,137.21,79.91Z"/></g></g></svg>